<?xml version="1.0" encoding="UTF-8" standalone="no"?>
<!-- Created with Inkscape (http://www.inkscape.org/) -->

<svg
   version="1.1"
   id="svg1"
   width="2819.2932"
   height="952.76398"
   viewBox="0 0 2819.2932 952.76398"
   sodipodi:docname="RU _Litres_Podcasts_techcommpod.ai"
   xmlns:inkscape="http://www.inkscape.org/namespaces/inkscape"
   xmlns:sodipodi="http://sodipodi.sourceforge.net/DTD/sodipodi-0.dtd"
   xmlns="http://www.w3.org/2000/svg"
   xmlns:svg="http://www.w3.org/2000/svg">
  <defs
     id="defs1">
    <clipPath
       clipPathUnits="userSpaceOnUse"
       id="clipPath2">
      <path
         d="M 0,714.573 H 2114.47 V 0 H 0 Z"
         transform="translate(-1947.213,-714.57342)"
         id="path2" />
    </clipPath>
    <clipPath
       clipPathUnits="userSpaceOnUse"
       id="clipPath4">
      <path
         d="M 0,714.573 H 2114.47 V 0 H 0 Z"
         transform="translate(-1479.7101,-255.0079)"
         id="path4" />
    </clipPath>
    <clipPath
       clipPathUnits="userSpaceOnUse"
       id="clipPath6">
      <path
         d="M 0,714.573 H 2114.47 V 0 H 0 Z"
         transform="translate(-1264.6056,-395.10321)"
         id="path6" />
    </clipPath>
    <clipPath
       clipPathUnits="userSpaceOnUse"
       id="clipPath8">
      <path
         d="M 0,714.573 H 2114.47 V 0 H 0 Z"
         transform="translate(-1047.8317,-295.96111)"
         id="path8" />
    </clipPath>
    <clipPath
       clipPathUnits="userSpaceOnUse"
       id="clipPath10">
      <path
         d="M 0,714.573 H 2114.47 V 0 H 0 Z"
         transform="translate(-807.13352,-259.39861)"
         id="path10" />
    </clipPath>
    <clipPath
       clipPathUnits="userSpaceOnUse"
       id="clipPath12">
      <path
         d="M 0,714.573 H 2114.47 V 0 H 0 Z"
         transform="translate(-568.10521,-335.03141)"
         id="path12" />
    </clipPath>
    <clipPath
       clipPathUnits="userSpaceOnUse"
       id="clipPath14">
      <path
         d="M 0,714.573 H 2114.47 V 0 H 0 Z"
         transform="translate(-276.32151,-257.41231)"
         id="path14" />
    </clipPath>
    <clipPath
       clipPathUnits="userSpaceOnUse"
       id="clipPath16">
      <path
         d="M 0,714.573 H 2114.47 V 0 H 0 Z"
         transform="translate(-1656.5743,-429.15841)"
         id="path16" />
    </clipPath>
    <clipPath
       clipPathUnits="userSpaceOnUse"
       id="clipPath18">
      <path
         d="M 0,714.573 H 2114.47 V 0 H 0 Z"
         transform="translate(-1656.5743,-365.53681)"
         id="path18" />
    </clipPath>
    <clipPath
       clipPathUnits="userSpaceOnUse"
       id="clipPath20">
      <path
         d="M 0,714.573 H 2114.47 V 0 H 0 Z"
         transform="translate(-1656.5743,-301.81271)"
         id="path20" />
    </clipPath>
    <clipPath
       clipPathUnits="userSpaceOnUse"
       id="clipPath22">
      <path
         d="M 0,714.573 H 2114.47 V 0 H 0 Z"
         transform="translate(-1849.5315,-429.15841)"
         id="path22" />
    </clipPath>
    <clipPath
       clipPathUnits="userSpaceOnUse"
       id="clipPath24">
      <path
         d="M 0,714.573 H 2114.47 V 0 H 0 Z"
         transform="translate(-1820.9055,-429.15841)"
         id="path24" />
    </clipPath>
    <clipPath
       clipPathUnits="userSpaceOnUse"
       id="clipPath26">
      <path
         d="M 0,714.573 H 2114.47 V 0 H 0 Z"
         transform="translate(-1849.5315,-365.53681)"
         id="path26" />
    </clipPath>
    <clipPath
       clipPathUnits="userSpaceOnUse"
       id="clipPath28">
      <path
         d="M 0,714.573 H 2114.47 V 0 H 0 Z"
         transform="translate(-1779.3273,-365.53681)"
         id="path28" />
    </clipPath>
    <clipPath
       clipPathUnits="userSpaceOnUse"
       id="clipPath30">
      <path
         d="M 0,714.573 H 2114.47 V 0 H 0 Z"
         transform="translate(-1792.2823,-429.15841)"
         id="path30" />
    </clipPath>
    <clipPath
       clipPathUnits="userSpaceOnUse"
       id="clipPath32">
      <path
         d="M 0,714.573 H 2114.47 V 0 H 0 Z"
         transform="translate(-1750.7013,-365.53681)"
         id="path32" />
    </clipPath>
    <clipPath
       clipPathUnits="userSpaceOnUse"
       id="clipPath34">
      <path
         d="M 0,714.573 H 2114.47 V 0 H 0 Z"
         transform="translate(-1849.5315,-301.81271)"
         id="path34" />
    </clipPath>
    <clipPath
       clipPathUnits="userSpaceOnUse"
       id="clipPath36">
      <path
         d="M 0,714.573 H 2114.47 V 0 H 0 Z"
         transform="translate(-1737.7501,-301.81271)"
         id="path36" />
    </clipPath>
    <clipPath
       clipPathUnits="userSpaceOnUse"
       id="clipPath38">
      <path
         d="M 0,714.573 H 2114.47 V 0 H 0 Z"
         transform="translate(-1709.1241,-301.81271)"
         id="path38" />
    </clipPath>
  </defs>
  <sodipodi:namedview
     id="namedview1"
     pagecolor="#ffffff"
     bordercolor="#000000"
     borderopacity="0.25"
     inkscape:showpageshadow="2"
     inkscape:pageopacity="0.0"
     inkscape:pagecheckerboard="0"
     inkscape:deskcolor="#d1d1d1">
    <inkscape:page
       x="0"
       y="0"
       inkscape:label="1"
       id="page1"
       width="2819.2932"
       height="952.76398"
       margin="0"
       bleed="0" />
  </sodipodi:namedview>
  <g
     id="layer-MC0"
     inkscape:groupmode="layer"
     inkscape:label="Слой 1">
    <path
       id="path1"
       d="M 0,0 H -1947.213 V -714.573 H 0 c 101.961,85.144 167.257,213.327 167.257,357.288 C 167.252,-213.328 101.961,-85.354 0,0"
       style="fill:#ffffff;fill-opacity:1;fill-rule:evenodd;stroke:none"
       transform="matrix(1.3333333,0,0,-1.3333333,2596.284,-5.3333333e-4)"
       clip-path="url(#clipPath2)" />
    <path
       id="path3"
       d="M 0,0 C 29.251,0 52.551,4.702 75.219,15.044 V 57.77 c 0,0.836 -0.94,1.358 -1.671,0.94 C 50.043,46.383 28.521,40.949 0,40.949 c -34.474,0 -52.234,16.505 -52.234,48.369 0,31.864 17.654,48.369 52.234,48.369 28.521,0 50.043,-5.327 73.548,-17.761 0.731,-0.418 1.671,0.103 1.671,0.94 v 42.726 C 52.551,173.934 29.251,178.636 0,178.636 c -62.472,0 -98.514,-32.491 -98.514,-89.322 C -98.514,32.483 -62.578,0 0,0"
       style="fill:#ff5500;fill-opacity:1;fill-rule:evenodd;stroke:none"
       transform="matrix(1.3333333,0,0,-1.3333333,1972.9468,612.75347)"
       clip-path="url(#clipPath4)" />
    <path
       id="path5"
       d="M 0,0 C 28.627,0 44.294,-12.848 50.146,-31.548 H -50.982 C -45.968,-11.285 -30.506,0 0,0 M 95.589,-53.699 C 95.589,10.341 56.412,38.34 0,38.34 c -61.323,0 -98.514,-33.641 -98.514,-88.486 0,-67.593 41.894,-89.949 102.589,-89.949 36.879,0 66.027,5.851 86.085,13.894 v 40.953 c 0,0.837 -0.838,1.359 -1.671,0.941 -14.522,-7.21 -47.535,-15.984 -83.888,-15.984 -31.967,0 -52.026,10.341 -56.519,35.73 H 92.979 c 0.94,0 1.67,0.628 1.879,1.567 0.522,3.029 0.731,6.266 0.731,9.295"
       style="fill:#ff5500;fill-opacity:1;fill-rule:evenodd;stroke:none"
       transform="matrix(1.3333333,0,0,-1.3333333,1686.1408,425.95973)"
       clip-path="url(#clipPath6)" />
    <path
       id="path7"
       d="m 0,0 c -30.399,0 -51.922,19.221 -51.922,48.369 0,29.25 21.519,48.369 51.922,48.369 32.697,0 50.773,-18.597 50.773,-48.369 C 50.773,18.598 32.697,0 0,0 m 13.579,137.798 c -30.818,0 -51.816,-12.015 -64.878,-29.879 -0.311,-0.418 -1.046,-0.209 -1.046,0.312 l -0.73,24.864 h -43.978 v -228.58 h 45.131 v 83.577 c 0,0.521 0.73,0.837 1.046,0.312 13.057,-17.551 33.953,-29.357 64.459,-29.357 52.234,0 84.62,37.506 84.62,89.322 0,51.816 -32.493,89.429 -84.624,89.429"
       style="fill:#ff5500;fill-opacity:1;fill-rule:evenodd;stroke:none"
       transform="matrix(1.3333333,0,0,-1.3333333,1397.1089,558.1492)"
       clip-path="url(#clipPath8)" />
    <path
       id="path9"
       d="m 0,0 h 45.024 v 128.602 h 75.534 v 41.055 H -75.534 V 128.602 H 0 Z"
       style="fill:#0a1e78;fill-opacity:1;fill-rule:evenodd;stroke:none"
       transform="matrix(1.3333333,0,0,-1.3333333,1076.178,606.8992)"
       clip-path="url(#clipPath10)" />
    <path
       id="path11"
       d="M 0,0 V 94.024 H -45.443 V -78.247 c 0,-2.404 2.716,-3.865 4.703,-2.404 L 95.49,18.593 v -94.127 l 45.439,0.004 V 96.741 c 0,2.405 -2.717,3.865 -4.703,2.405 z"
       style="fill:#0a1e78;fill-opacity:1;fill-rule:evenodd;stroke:none"
       transform="matrix(1.3333333,0,0,-1.3333333,757.4736,506.05547)"
       clip-path="url(#clipPath12)" />
    <path
       id="path13"
       d="m 0,0 c -12.639,0 -21.835,0.628 -21.835,0.628 v 40.744 l 7.313,-0.004 c 8.568,0 14.94,2.089 19.221,6.061 4.283,4.075 7.419,10.759 9.508,19.956 2.088,9.192 3.656,23.086 4.805,41.474 0.73,12.955 1.567,33.85 2.298,62.579 0.209,8.88 0.521,20.161 0.837,33.744 l 181.989,-0.004 V 1.986 H 154.093 V 166.21 H 68.948 c -0.209,-2.716 -0.73,-13.475 -1.461,-32.282 -0.419,-13.164 -0.73,-21.519 -1.149,-25.073 C 64.562,80.754 61.845,59.129 58.189,44.188 54.532,29.247 48.16,18.175 39.279,10.862 30.399,3.656 17.239,0 0,0"
       style="fill:#0a1e78;fill-opacity:1;fill-rule:evenodd;stroke:none"
       transform="matrix(1.3333333,0,0,-1.3333333,368.42867,609.5476)"
       clip-path="url(#clipPath14)" />
    <path
       id="path15"
       d="m 0,0 c -1.256,0 -1.671,-0.837 -0.73,-1.669 5.013,-5.015 8.042,-11.91 8.042,-19.538 0,-7.628 -3.029,-14.522 -8.042,-19.431 -0.941,-0.939 -0.628,-1.776 1.148,-1.776 h 106.561 c 6.061,5.015 9.927,12.639 9.927,21.207 0,8.568 -3.866,16.09 -9.927,21.207 z"
       style="fill:#0a1e78;fill-opacity:1;fill-rule:evenodd;stroke:none"
       transform="matrix(1.3333333,0,0,-1.3333333,2208.7657,380.5528)"
       clip-path="url(#clipPath16)" />
    <path
       id="path17"
       d="m 0,0 c -1.256,0 -1.671,-0.837 -0.73,-1.67 5.013,-5.014 8.042,-11.909 8.042,-19.537 0,-7.624 -3.029,-14.522 -8.042,-19.43 -0.941,-0.94 -0.628,-1.777 1.148,-1.777 h 65.087 c 6.06,5.014 9.926,12.639 9.926,21.207 0,8.568 -3.866,16.09 -9.926,21.207 z"
       style="fill:#0a1e78;fill-opacity:1;fill-rule:evenodd;stroke:none"
       transform="matrix(1.3333333,0,0,-1.3333333,2208.7657,465.3816)"
       clip-path="url(#clipPath18)" />
    <path
       id="path19"
       d="m 0,0 c -1.358,0 -1.671,-0.73 -0.73,-1.776 4.911,-5.015 8.042,-11.806 8.042,-19.431 0,-7.624 -3.029,-14.522 -8.042,-19.431 -0.941,-0.939 -0.628,-1.776 1.148,-1.776 h 23.505 c 6.061,5.015 9.927,12.639 9.927,21.207 0,8.568 -3.866,16.09 -9.927,21.207 z"
       style="fill:#0a1e78;fill-opacity:1;fill-rule:evenodd;stroke:none"
       transform="matrix(1.3333333,0,0,-1.3333333,2208.7657,550.34707)"
       clip-path="url(#clipPath20)" />
    <path
       id="path21"
       d="m 0,0 h -28.626 c 6.061,-5.014 9.926,-12.639 9.926,-21.207 0,-8.568 -3.865,-16.09 -9.926,-21.207 H 0 c 6.061,5.015 9.927,12.639 9.927,21.207 C 9.927,-12.639 5.954,-5.014 0,0"
       style="fill:#ff5500;fill-opacity:1;fill-rule:evenodd;stroke:none"
       transform="matrix(1.3333333,0,0,-1.3333333,2466.0419,380.5528)"
       clip-path="url(#clipPath22)" />
    <path
       id="path23"
       d="m 0,0 h -28.627 c 6.062,-5.014 9.927,-12.639 9.927,-21.207 0,-8.568 -3.865,-16.09 -9.927,-21.207 H 0 c 6.061,5.015 9.926,12.639 9.926,21.207 C 9.926,-12.639 5.958,-5.014 0,0"
       style="fill:#6262d9;fill-opacity:1;fill-rule:evenodd;stroke:none"
       transform="matrix(1.3333333,0,0,-1.3333333,2427.8739,380.5528)"
       clip-path="url(#clipPath24)" />
    <path
       id="path25"
       d="m 0,0 h -70.204 c 6.061,-5.014 9.927,-12.639 9.927,-21.207 0,-8.568 -3.866,-16.089 -9.927,-21.207 H 0 C 6.061,-37.4 9.927,-29.775 9.927,-21.207 9.927,-12.639 5.954,-5.117 0,0"
       style="fill:#ff5500;fill-opacity:1;fill-rule:evenodd;stroke:none"
       transform="matrix(1.3333333,0,0,-1.3333333,2466.0419,465.3816)"
       clip-path="url(#clipPath26)" />
    <path
       id="path27"
       d="m 0,0 h -28.626 c 6.061,-5.014 9.927,-12.639 9.927,-21.207 0,-8.568 -3.866,-16.089 -9.927,-21.207 H 0 C 6.062,-37.4 9.927,-29.775 9.927,-21.207 9.927,-12.639 6.062,-5.117 0,0"
       style="fill:#6262d9;fill-opacity:1;fill-rule:evenodd;stroke:none"
       transform="matrix(1.3333333,0,0,-1.3333333,2372.4364,465.3816)"
       clip-path="url(#clipPath28)" />
    <path
       id="path29"
       d="m 0,0 h -28.626 c 6.061,-5.014 9.927,-12.639 9.927,-21.207 0,-8.568 -3.866,-16.09 -9.927,-21.207 H 0 c 6.061,5.015 9.927,12.639 9.927,21.207 C 9.927,-12.639 6.058,-5.014 0,0"
       style="fill:#3d3dc7;fill-opacity:1;fill-rule:evenodd;stroke:none"
       transform="matrix(1.3333333,0,0,-1.3333333,2389.7097,380.5528)"
       clip-path="url(#clipPath30)" />
    <path
       id="path31"
       d="m 0,0 h -28.626 c 6.061,-5.014 9.927,-12.639 9.927,-21.207 0,-8.568 -3.866,-16.089 -9.927,-21.207 H 0 C 6.061,-37.4 9.927,-29.775 9.927,-21.207 9.927,-12.639 6.061,-5.117 0,0"
       style="fill:#3d3dc7;fill-opacity:1;fill-rule:evenodd;stroke:none"
       transform="matrix(1.3333333,0,0,-1.3333333,2334.2684,465.3816)"
       clip-path="url(#clipPath32)" />
    <path
       id="path33"
       d="m 0,0 h -111.678 c 6.061,-5.015 9.926,-12.639 9.926,-21.207 0,-8.568 -3.865,-16.09 -9.926,-21.207 H 0 c 6.061,5.015 9.927,12.639 9.927,21.207 C 9.82,-12.643 5.954,-5.015 0,0"
       style="fill:#ff5500;fill-opacity:1;fill-rule:evenodd;stroke:none"
       transform="matrix(1.3333333,0,0,-1.3333333,2466.0419,550.34707)"
       clip-path="url(#clipPath34)" />
    <path
       id="path35"
       d="m 0,0 h -28.626 c 6.061,-5.015 9.927,-12.639 9.927,-21.207 0,-8.568 -3.866,-16.09 -9.927,-21.207 H 0 c 6.062,5.015 9.927,12.639 9.927,21.207 C 9.923,-12.643 6.058,-5.015 0,0"
       style="fill:#6262d9;fill-opacity:1;fill-rule:evenodd;stroke:none"
       transform="matrix(1.3333333,0,0,-1.3333333,2317.0001,550.34707)"
       clip-path="url(#clipPath36)" />
    <path
       id="path37"
       d="m 0,0 h -28.627 c 6.062,-5.015 9.927,-12.639 9.927,-21.207 0,-8.568 -3.865,-16.09 -9.927,-21.207 H 0 c 6.061,5.015 9.927,12.639 9.927,21.207 C 9.927,-12.643 6.061,-5.015 0,0"
       style="fill:#3d3dc7;fill-opacity:1;fill-rule:evenodd;stroke:none"
       transform="matrix(1.3333333,0,0,-1.3333333,2278.8321,550.34707)"
       clip-path="url(#clipPath38)" />
  </g>
</svg>
