<svg version="1.2" xmlns="http://www.w3.org/2000/svg" viewBox="0 0 150 20" width="150" height="20">
	<title>RU_Yandex_Podcasts_techcommpod-svg</title>
	<defs>
		<clipPath clipPathUnits="userSpaceOnUse" id="cp1">
			<path d="m63.23 0.65h18.94v18.51h-18.94z"/>
		</clipPath>
		<clipPath clipPathUnits="userSpaceOnUse" id="cp2">
			<path d="m72.72 19.14c-5.22 0-9.45-4.13-9.45-9.23 0-5.11 4.23-9.24 9.45-9.24 5.23 0 9.45 4.13 9.45 9.24 0 5.1-4.22 9.23-9.45 9.23z"/>
		</clipPath>
		<clipPath clipPathUnits="userSpaceOnUse" id="cp3">
			<path d="m0.15 0.65h59.18v18.51h-59.18z"/>
		</clipPath>
	</defs>
	<style>
		.s0 { fill: #fcca00 } 
		.s1 { fill: #fc3f1d } 
		.s2 { fill: #000000 } 
	</style>
	<g id="Clip-Path" clip-path="url(#cp1)">
		<g id="Layer">
			<g id="Clip-Path" clip-path="url(#cp2)">
				<g id="Layer">
					<path id="Layer" class="s0" d="m67.1 2.5c1.4-1 3-1.7 4.8-1.8v2.8c-1.2 0.1-2.2 0.5-3.1 1.2-1.2 0.8-2 2-2.4 3.3-0.5 1.4-0.4 2.8 0.1 4.1 0.4 1.3 1.3 2.4 2.5 3.2 1.2 0.8 2.6 1.1 4 1.1 1.4-0.1 2.8-0.6 3.9-1.5 1.1-0.9 1.9-2.1 2.2-3.4 0.3-0.9 0.3-1.9 0.1-2.9l2.4-1.8v-0.1c0.7 1.8 0.8 3.7 0.3 5.5-0.5 1.9-1.6 3.6-3.2 4.9-1.6 1.2-3.5 2-5.6 2.1-2 0-4-0.5-5.7-1.6-1.7-1.1-2.9-2.7-3.6-4.6-0.7-1.9-0.7-3.9-0.2-5.8 0.6-1.9 1.8-3.5 3.5-4.7z"/>
					<path id="Layer" class="s1" d="m79.8 3.8l-1.6 2.5c-0.6-0.9-1.4-1.6-2.3-2.1v5.7c0 1.7-1.4 3.2-3.2 3.2-1.8 0-3.2-1.5-3.2-3.2 0-1.7 1.4-3.1 3.2-3.1 0.7 0 1.3 0.2 1.8 0.5v-6.5c2.1 0.4 3.9 1.5 5.3 3z"/>
				</g>
			</g>
		</g>
	</g>
	<g id="Clip-Path" clip-path="url(#cp3)">
		<g id="Layer">
			<path id="Layer" fill-rule="evenodd" class="s2" d="m8.2 4.8h-1.1c-2 0-3.1 1-3.1 2.5 0 1.7 0.7 2.5 2.3 3.5l1.2 0.8-3.6 5.3h-2.7l3.3-4.7c-1.9-1.3-3-2.6-3-4.7 0-2.7 1.9-4.6 5.6-4.6h3.6v14h-2.5zm29.2 12.2c-3.1 0-4.9-1.7-4.9-5.2 0-3 1.4-5.3 4.4-5.3 2.4 0 4 1.4 4 4.9v1.2h-5.9c0.1 1.7 0.8 2.5 2.6 2.5 1.2 0 2.5-0.4 3.2-0.9v1.9c-0.7 0.5-1.9 0.9-3.4 0.9zm13.8-5.2c0-3.1 1.7-5.3 4.8-5.3 1.2 0 2.1 0.2 2.6 0.5v2c-0.5-0.3-1.4-0.6-2.4-0.6-1.6 0-2.4 1.1-2.4 3.3 0 2.1 0.7 3.4 2.4 3.4 1 0 1.8-0.2 2.4-0.6v1.9c-0.6 0.4-1.4 0.6-2.5 0.6-3.3 0-4.9-1.8-4.9-5.2zm-30.3-5.1v10.1h-2.5v-4.2h-3.2v4.2h-2.5v-10.1h2.5v4h3.2v-4zm11.1 12.4h-2.3v-2.3h-5.5v2.3h-2.2v-4.2h0.7c0.9-1.6 1.1-4.8 1.1-7.3v-0.9h7.1v8.2h1.1zm13.1-7.2v4.9h-2.5v-10h2.5v4.6l3.4-4.6h2.5l-3.5 4.6 3.9 5.4h-2.7zm-10-1h3.4v-0.2c0-1.2-0.4-2.2-1.6-2.2-1.1 0-1.7 0.8-1.8 2.4zm-6.7-2.2h-2.5v0.3c0 1.7-0.2 4.5-0.9 6h3.4z"/>
		</g>
	</g>
	<path id="Layer" class="s2" d="m92.2 16.8h2.1l2.9-10.5v10.5h2.4v-13.9h-3.3l-2.9 10.3-2.8-10.3h-3.3v13.9h2v-10.5z"/>
	<path id="Layer" class="s2" d="m102.9 20c2.3 0 3.1-1.6 3.8-3.7l3.3-9.5h-2.4l-2.3 7.5-2.3-7.5h-2.5l3.5 10.5c-0.2 0.5-0.6 0.8-1.3 0.8-0.5 0-0.8-0.2-1.1-0.4v1.9c0 0 0.4 0.4 1.3 0.4z"/>
	<path id="Layer" class="s2" d="m113.5 15.2c-1.2 0-2.5-0.5-3.1-1v2c0.4 0.4 1.6 0.8 3.4 0.8 2.6 0 4-1.1 4-3.1 0-1.2-0.8-2-2.1-2.3 1.2-0.4 1.8-1.3 1.8-2.4 0-1.7-1.4-2.6-3.6-2.6-1.6 0-2.7 0.4-3.3 0.8v1.9c0.7-0.4 1.6-0.9 2.9-0.9 0.9 0 1.5 0.5 1.5 1.2 0 0.8-0.5 1.2-1.5 1.2h-1.5v1.8h1.5c1.3 0 1.8 0.4 1.8 1.3 0 0.8-0.6 1.3-1.8 1.3z"/>
	<path id="Layer" fill-rule="evenodd" class="s2" d="m121.9 6.8v3.1h1.3c2.5 0 4 1.1 4 3.4 0 2.3-1.7 3.5-4.1 3.5h-3.7v-10zm6.3 0h2.4v10h-2.4zm-3.4 6.6c0-1.1-0.6-1.6-1.7-1.6h-1.2v3.2h1.2c1 0 1.7-0.4 1.7-1.6z"/>
	<path id="Layer" class="s2" d="m138.7 16.8h2.8l-4-5.4 3.5-4.6h-2.5l-3.4 4.6v-4.6h-2.5v10h2.5v-4.9z"/>
	<path id="Layer" fill-rule="evenodd" class="s2" d="m149.8 14.4q0 1.2 0.1 2.4h-2.4c-0.1-0.2-0.2-0.5-0.2-0.8h-0.1c-0.5 0.5-1.1 1-2.5 1-1.9 0-3.2-1.2-3.2-3.2 0-2 1.7-3.2 5.4-3.2h0.4v-0.6c0-1.1-0.5-1.5-1.7-1.5-1.2 0-2.7 0.5-3.3 1v-2c0.7-0.4 2-0.9 3.6-0.9 2.6 0 3.9 0.9 3.9 3.4zm-2.5-2.3h-0.3c-2.1 0-3 0.4-3 1.6 0 0.9 0.5 1.5 1.6 1.5 0.8 0 1.4-0.3 1.7-0.8z"/>
</svg>