<svg width="630" height="86" viewBox="0 0 630 86" fill="none" xmlns="http://www.w3.org/2000/svg">
<g clip-path="url(#clip0_401_2851)">
<mask id="mask0_401_2851" style="mask-type:alpha" maskUnits="userSpaceOnUse" x="265" y="2" width="81" height="81">
<ellipse cx="305.436" cy="42.6005" rx="39.6954" ry="39.7138" fill="#C4C4C4"/>
</mask>
<g mask="url(#mask0_401_2851)">
<path d="M281.679 10.6298C287.567 6.26495 294.526 3.62635 301.779 2.9707V14.9779C297.09 15.586 292.613 17.3818 288.783 20.2211C283.987 23.7763 280.46 28.7794 278.723 34.4924C276.985 40.2054 277.129 46.3258 279.133 51.9509C281.136 57.576 284.894 62.408 289.851 65.7341C294.808 69.0602 300.703 70.7044 306.665 70.4241C312.627 70.1438 318.342 67.9539 322.965 64.1773C327.589 60.4008 330.877 55.2376 332.345 49.4493C333.368 45.4119 333.468 41.2194 332.667 37.1776L342.745 29.0716L342.738 29.0063C345.459 36.4933 345.874 44.6386 343.91 52.3844C341.814 60.6534 337.116 68.0294 330.511 73.4245C323.906 78.8195 315.743 81.9479 307.225 82.3484C298.708 82.7488 290.287 80.4 283.205 75.6484C276.123 70.8968 270.755 63.994 267.893 55.9582C265.031 47.9223 264.825 39.1788 267.308 31.0174C269.79 22.856 274.828 15.7087 281.679 10.6298Z" fill="#FCCA00"/>
<path d="M335.146 16.2333L335.188 16.3391L328.453 27.0407C326.004 23.4096 322.722 20.3873 318.881 18.248V42.6015C318.881 50.0734 312.827 56.1306 305.358 56.1306C297.89 56.1306 291.835 50.0734 291.835 42.6015C291.835 35.1296 297.89 29.0724 305.358 29.0724C308.157 29.0724 310.757 29.9232 312.915 31.3803V3.52734C321.694 5.21681 329.447 9.79446 335.146 16.2333Z" fill="#FC3F1D"/>
</g>
</g>
<g clip-path="url(#clip1_401_2851)">
<path d="M34.4811 72.5717H44.9083V12.6523H29.7414C14.4884 12.6523 6.47414 20.4979 6.47414 32.0507C6.47414 41.2757 10.8691 46.7072 18.711 52.3112L5.09534 72.5717H16.3843L31.5511 49.8972L26.2944 46.3624C19.9175 42.0516 16.8152 38.6892 16.8152 31.4472C16.8152 25.0673 21.2963 20.7565 29.8276 20.7565H34.4811V72.5717ZM171.413 69.6404V61.2776C168.225 63.4329 162.882 65.3297 157.884 65.3297C150.387 65.3297 147.543 61.7948 147.112 54.5528H171.844V49.1213C171.844 34.0336 165.209 28.3435 154.954 28.3435C142.459 28.3435 136.512 37.9133 136.512 51.018C136.512 66.1056 143.924 73.4339 157.022 73.4339C163.571 73.4339 168.397 71.7096 171.413 69.6404ZM235.528 73.4339C240.267 73.4339 243.628 72.5717 246.127 70.7612V62.3983C243.542 64.2089 240.44 65.3297 236.131 65.3297C228.806 65.3297 225.79 59.6395 225.79 50.6731C225.79 41.2757 229.495 36.4477 236.217 36.4477C240.181 36.4477 244.059 37.8271 246.127 39.1203V30.4126C243.973 29.2056 240.181 28.3435 235.097 28.3435C221.998 28.3435 215.19 37.7409 215.19 50.9318C215.19 65.4159 221.826 73.4339 235.528 73.4339ZM77.4825 29.2056V46.3624H63.7806V29.2056H53.5258V72.5717H63.7806V54.4666H77.4825V72.5717H87.7373V29.2056H77.4825ZM134.013 64.4675H129.446V29.2056H99.5433V32.9129C99.5433 43.5173 98.8539 57.2255 95.2346 64.4675H92.0461V82.4864H101.525V72.5717H124.534V82.4864H134.013V64.4675ZM204.16 72.5717H215.794L199.334 49.2075L213.812 29.2056H203.471L188.993 49.2075V29.2056H178.738V72.5717H188.993V51.2766L204.16 72.5717ZM154.782 36.4477C159.866 36.4477 161.417 40.6722 161.417 46.1037V46.9659H147.112C147.371 40.0687 149.87 36.4477 154.782 36.4477ZM119.191 64.4675H104.714C107.558 57.9152 108.333 46.1037 108.333 38.603V37.3098H119.191V64.4675Z" fill="black"/>
</g>
<path d="M387.443 72.4468H396.061L408.298 27.1839V72.4468H418.122V12.5273H404.592L392.441 56.6694L380.463 12.5273H366.675V72.4468H375.206V27.1839L387.443 72.4468Z" fill="black"/>
<path d="M432.277 85.8101C441.843 85.8101 445.376 78.9991 448.306 70.119L461.835 29.0806H451.925L442.36 61.6699L432.794 29.0806H422.022L436.931 74.3435C435.81 76.4126 434.173 77.7059 431.329 77.7059C429.433 77.7059 427.796 77.1024 426.676 75.9816V84.3444C426.676 84.3444 428.227 85.8101 432.277 85.8101Z" fill="black"/>
<path d="M476.767 65.2047C471.51 65.2047 466.339 63.308 463.582 61.2388V69.6017C465.564 71.2397 470.562 73.3089 477.973 73.3089C488.917 73.3089 494.691 68.3947 494.691 59.6869C494.691 54.6003 491.503 51.1517 485.815 49.9446C491.158 48.2203 493.398 44.4269 493.398 39.5989C493.398 32.2706 487.625 28.2185 478.318 28.2185C471.596 28.2185 467.201 30.2876 464.702 31.8395V40.2024C467.46 38.3918 471.251 36.3227 476.853 36.3227C480.644 36.3227 483.057 38.1332 483.057 41.3231C483.057 44.6855 480.989 46.496 476.767 46.496H470.303V54.2554H476.767C482.023 54.2554 484.091 55.8073 484.091 59.6007C484.091 63.0493 481.592 65.2047 476.767 65.2047Z" fill="black"/>
<path d="M501.576 29.0806V72.4468H517.174C527.256 72.4468 534.409 67.2739 534.409 57.1005C534.409 47.4444 528.032 42.3577 517.346 42.3577H511.831V29.0806H501.576ZM538.201 29.0806V72.4468H548.456V29.0806H538.201ZM516.571 64.3425H511.831V50.4619H516.829C521.224 50.4619 523.809 52.4449 523.809 57.4454C523.809 62.4458 520.966 64.3425 516.571 64.3425Z" fill="black"/>
<path d="M582.456 72.4468H594.09L577.631 49.0825L592.108 29.0806H581.767L567.29 49.0825V29.0806H557.035V72.4468H567.29V51.1517L582.456 72.4468Z" fill="black"/>
<path d="M628.99 42.875C628.99 32.3568 623.647 28.3909 612.789 28.3909C605.981 28.3909 600.638 30.5463 597.536 32.3568V40.8921C600.293 38.8229 606.326 36.5813 611.582 36.5813C616.494 36.5813 618.735 38.3056 618.735 42.9612V45.3753H617.097C601.414 45.3753 594.433 50.5482 594.433 59.3421C594.433 68.136 599.776 73.0503 607.704 73.0503C613.737 73.0503 616.322 71.0673 618.304 68.9982H618.735C618.821 70.119 619.166 71.5846 619.51 72.4468H629.507C629.162 68.9119 628.99 65.3771 628.99 61.8423V42.875ZM618.735 62.101C617.442 63.9977 615.029 65.5496 611.41 65.5496C607.101 65.5496 604.947 62.9631 604.947 59.0834C604.947 53.9967 608.48 52.1862 617.27 52.1862H618.735V62.101Z" fill="black"/>
<defs>
<clipPath id="clip0_401_2851">
<rect width="79.5462" height="79.583" fill="white" transform="translate(265.585 2.81055)"/>
</clipPath>
<clipPath id="clip1_401_2851">
<rect width="248.582" height="79.583" fill="white" transform="translate(0.614258 2.81055)"/>
</clipPath>
</defs>
</svg>
